<mxfile host="app.diagrams.net" modified="2024-03-01T19:06:24.578Z" agent="Mozilla/5.0 (X11; Linux x86_64; rv:109.0) Gecko/20100101 Firefox/115.0" etag="jlCRl_RoOdnYhSAC9eSi" version="24.0.0" type="github">
  <diagram name="Page-1" id="Zpdgql0ArH2v_8GtakJc">
    <mxGraphModel dx="1430" dy="736" grid="1" gridSize="10" guides="1" tooltips="1" connect="1" arrows="1" fold="1" page="1" pageScale="1" pageWidth="850" pageHeight="1100" math="0" shadow="0">
      <root>
        <mxCell id="0" />
        <mxCell id="1" parent="0" />
        <mxCell id="jCbEaIp3xnlMvEBQj0Ci-11" value="" style="rounded=1;whiteSpace=wrap;html=1;" vertex="1" parent="1">
          <mxGeometry x="180" y="40" width="340" height="520" as="geometry" />
        </mxCell>
        <mxCell id="jCbEaIp3xnlMvEBQj0Ci-1" value="WAN" style="ellipse;shape=cloud;whiteSpace=wrap;html=1;" vertex="1" parent="1">
          <mxGeometry y="120" width="120" height="80" as="geometry" />
        </mxCell>
        <mxCell id="jCbEaIp3xnlMvEBQj0Ci-2" value="" style="rounded=1;whiteSpace=wrap;html=1;" vertex="1" parent="1">
          <mxGeometry x="290" y="100" width="210" height="440" as="geometry" />
        </mxCell>
        <mxCell id="jCbEaIp3xnlMvEBQj0Ci-3" value="VirtualBox" style="text;html=1;align=center;verticalAlign=middle;whiteSpace=wrap;rounded=0;" vertex="1" parent="1">
          <mxGeometry x="320" y="100" width="60" height="30" as="geometry" />
        </mxCell>
        <mxCell id="jCbEaIp3xnlMvEBQj0Ci-4" value="NAT" style="rounded=1;whiteSpace=wrap;html=1;" vertex="1" parent="1">
          <mxGeometry x="260" y="130" width="60" height="60" as="geometry" />
        </mxCell>
        <mxCell id="jCbEaIp3xnlMvEBQj0Ci-5" value="" style="endArrow=classic;html=1;rounded=0;exitX=0;exitY=0.5;exitDx=0;exitDy=0;" edge="1" parent="1" source="jCbEaIp3xnlMvEBQj0Ci-4" target="jCbEaIp3xnlMvEBQj0Ci-1">
          <mxGeometry width="50" height="50" relative="1" as="geometry">
            <mxPoint x="400" y="570" as="sourcePoint" />
            <mxPoint x="450" y="520" as="targetPoint" />
          </mxGeometry>
        </mxCell>
        <mxCell id="jCbEaIp3xnlMvEBQj0Ci-6" value="Host" style="rounded=1;whiteSpace=wrap;html=1;" vertex="1" parent="1">
          <mxGeometry x="340" y="130" width="120" height="60" as="geometry" />
        </mxCell>
        <mxCell id="jCbEaIp3xnlMvEBQj0Ci-7" value="" style="endArrow=classic;html=1;rounded=0;entryX=1;entryY=0.5;entryDx=0;entryDy=0;exitX=0;exitY=0.5;exitDx=0;exitDy=0;" edge="1" parent="1" source="jCbEaIp3xnlMvEBQj0Ci-6" target="jCbEaIp3xnlMvEBQj0Ci-4">
          <mxGeometry width="50" height="50" relative="1" as="geometry">
            <mxPoint x="490" y="570" as="sourcePoint" />
            <mxPoint x="540" y="520" as="targetPoint" />
          </mxGeometry>
        </mxCell>
        <mxCell id="jCbEaIp3xnlMvEBQj0Ci-9" value="Client" style="rounded=1;whiteSpace=wrap;html=1;" vertex="1" parent="1">
          <mxGeometry x="340" y="460" width="120" height="60" as="geometry" />
        </mxCell>
        <mxCell id="jCbEaIp3xnlMvEBQj0Ci-10" value="" style="endArrow=classic;html=1;rounded=0;exitX=0.5;exitY=1;exitDx=0;exitDy=0;entryX=0.5;entryY=0;entryDx=0;entryDy=0;" edge="1" parent="1" source="jCbEaIp3xnlMvEBQj0Ci-6" target="jCbEaIp3xnlMvEBQj0Ci-9">
          <mxGeometry width="50" height="50" relative="1" as="geometry">
            <mxPoint x="420" y="570" as="sourcePoint" />
            <mxPoint x="470" y="520" as="targetPoint" />
          </mxGeometry>
        </mxCell>
        <mxCell id="jCbEaIp3xnlMvEBQj0Ci-8" value="intnet" style="shape=cylinder3;whiteSpace=wrap;html=1;boundedLbl=1;backgroundOutline=1;size=15;" vertex="1" parent="1">
          <mxGeometry x="370" y="290" width="60" height="80" as="geometry" />
        </mxCell>
        <mxCell id="jCbEaIp3xnlMvEBQj0Ci-12" value="SSH" style="rounded=1;whiteSpace=wrap;html=1;" vertex="1" parent="1">
          <mxGeometry x="200" y="210" width="60" height="60" as="geometry" />
        </mxCell>
        <mxCell id="jCbEaIp3xnlMvEBQj0Ci-16" value="" style="curved=1;endArrow=classic;html=1;rounded=0;exitX=0.5;exitY=0;exitDx=0;exitDy=0;entryX=0;entryY=0.75;entryDx=0;entryDy=0;" edge="1" parent="1" source="jCbEaIp3xnlMvEBQj0Ci-12" target="jCbEaIp3xnlMvEBQj0Ci-6">
          <mxGeometry width="50" height="50" relative="1" as="geometry">
            <mxPoint x="250" y="320" as="sourcePoint" />
            <mxPoint x="300" y="270" as="targetPoint" />
            <Array as="points">
              <mxPoint x="230" y="180" />
              <mxPoint x="270" y="180" />
            </Array>
          </mxGeometry>
        </mxCell>
        <mxCell id="jCbEaIp3xnlMvEBQj0Ci-17" value="Localhost" style="text;html=1;align=center;verticalAlign=middle;whiteSpace=wrap;rounded=0;" vertex="1" parent="1">
          <mxGeometry x="210" y="40" width="60" height="30" as="geometry" />
        </mxCell>
      </root>
    </mxGraphModel>
  </diagram>
</mxfile>
